<?xml version="1.0" encoding="UTF-8"?><svg id="Layer_2" xmlns="http://www.w3.org/2000/svg" width="32" height="32" xmlns:xlink="http://www.w3.org/1999/xlink" viewBox="0 0 32 32"><defs><linearGradient id="linear-gradient" x1="15.44" y1="22.04" x2="30.13" y2="22.04" gradientUnits="userSpaceOnUse"><stop offset="0" stop-color="#fbb03b"/><stop offset="1" stop-color="#f7931e"/></linearGradient></defs><g id="Layer_1-2"><rect width="32" height="32" fill="none" stroke-width="0"/><path d="M3.54,29.33h17.03c.92,0,1.67-.75,1.67-1.67V4.34c0-.92-.75-1.67-1.67-1.67H3.54c-.92,0-1.67.75-1.67,1.67v23.32c0,.92.75,1.67,1.67,1.67Z" fill="#6770e6" stroke-width="0"/><path d="M20.6,2.67H3.71c-.92.02-1.67.77-1.85,1.69v.87c.18-.92.92-1.67,1.85-1.82h16.88c.92.15,1.67.9,1.63,1.82v-.87c.04-.92-.71-1.67-1.63-1.69Z" fill="#8f95e6" stroke-width="0"/><path d="M4.61,9.34h14.89c.49,0,.89-.4.89-.89v-3.04c0-.49-.4-.89-.89-.89H4.61c-.49,0-.89.4-.89.89v3.04c0,.49.4.89.89.89Z" fill="#5861c7" stroke-width="0"/><path d="M9.24,6.67c0,.5-.41.91-.91.91s-.91-.41-.91-.91.41-.91.91-.91.91.41.91.91Z" fill="#fff" stroke-width="0"/><path d="M18.22,7.12h-6.85c-.31,0-.56-.25-.56-.56s.25-.56.56-.56h6.85c.31,0,.56.25.56.56s-.25.56-.56.56Z" fill="#6770e6" stroke-width="0"/><path d="M4.61,4.52h.97v4.81h-.97c-.49,0-.89-.4-.89-.89v-3.04c0-.49.4-.89.89-.89Z" fill="#d476e2" stroke-width="0"/><path d="M4.61,15.26h14.89c.49,0,.89-.4.89-.89v-3.04c0-.49-.4-.89-.89-.89H4.61c-.49,0-.89.4-.89.89v3.04c0,.49.4.89.89.89Z" fill="#5861c7" stroke-width="0"/><path d="M9.24,12.82c0,.5-.41.91-.91.91s-.91-.41-.91-.91.41-.91.91-.91.91.41.91.91Z" fill="#fff" stroke-width="0"/><path d="M18.22,13.41h-6.85c-.31,0-.56-.25-.56-.56s.25-.56.56-.56h6.85c.31,0,.56.25.56.56s-.25.56-.56.56Z" fill="#6770e6" stroke-width="0"/><path d="M4.61,10.45h.97v4.81h-.97c-.49,0-.89-.4-.89-.89v-3.04c0-.49.4-.89.89-.89Z" fill="#d476e2" stroke-width="0"/><path d="M4.61,21.55h14.89c.49,0,.89-.4.89-.89v-3.04c0-.49-.4-.89-.89-.89H4.61c-.49,0-.89.4-.89.89v3.04c0,.49.4.89.89.89Z" fill="#5861c7" stroke-width="0"/><path d="M9.24,18.98c0,.5-.41.91-.91.91s-.91-.41-.91-.91.41-.91.91-.91.91.41.91.91Z" fill="#fff" stroke-width="0"/><path d="M18.22,19.7h-6.85c-.31,0-.56-.25-.56-.56s.25-.56.56-.56h6.85c.31,0,.56.25.56.56s-.25.56-.56.56Z" fill="#6770e6" stroke-width="0"/><path d="M4.61,16.74h.97v4.81h-.97c-.49,0-.89-.4-.89-.89v-3.04c0-.49.4-.89.89-.89Z" fill="#d476e2" stroke-width="0"/><path d="M4.61,27.48h14.89c.49,0,.89-.4.89-.89v-3.04c0-.49-.4-.89-.89-.89H4.61c-.49,0-.89.4-.89.89v3.04c0,.49.4.89.89.89Z" fill="#5861c7" stroke-width="0"/><path d="M9.24,25.13c0,.5-.41.91-.91.91s-.91-.41-.91-.91.41-.91.91-.91.91.41.91.91Z" fill="#fff" stroke-width="0"/><path d="M18.22,25.63h-6.85c-.31,0-.56-.25-.56-.56s.25-.56.56-.56h6.85c.31,0,.56.25.56.56s-.25.56-.56.56Z" fill="#6770e6" stroke-width="0"/><path d="M4.61,22.66h.97v4.81h-.97c-.49,0-.89-.4-.89-.89v-3.04c0-.49.4-.89.89-.89Z" fill="#d476e2" stroke-width="0"/><path d="M22.43,14.81l-6.62,2.3c-.24.08-.39.32-.36.57.16,1.66,1.12,7.69,7.04,11.56.18.12.42.12.6,0,5.92-3.86,6.89-9.9,7.04-11.56.02-.25-.13-.49-.36-.57l-6.62-2.3c-.23-.08-.49-.08-.72,0Z" fill="url(#linear-gradient)" stroke-width="0"/><path d="M22.75,24.62h0c-.15,0-.28-.06-.39-.16l-2.24-2.24c-.21-.21-.21-.56,0-.77.21-.21.56-.21.77,0l1.86,1.86,3.14-3.14c.21-.21.56-.21.77,0,.21.21.21.56,0,.77l-3.53,3.53c-.1.1-.24.16-.39.16Z" fill="#1b1464" opacity=".1" stroke-width="0"/><path d="M22.22,24.09h0c-.15,0-.28-.06-.39-.16l-2.24-2.24c-.21-.21-.21-.56,0-.77.21-.21.56-.21.77,0l1.86,1.86,3.14-3.14c.21-.21.56-.21.77,0,.21.21.21.56,0,.77l-3.53,3.53c-.1.1-.24.16-.39.16Z" fill="#fff" stroke-width="0"/><path d="M17.5,16.53l-1.69.59c-.24.08-.39.32-.36.57.16,1.66,1.12,7.69,7.04,11.56.18.12.42.12.6,0,.36-.23.69-.47,1.01-.72-4.85-3.84-6.22-9.35-6.6-12Z" fill="#f15a24" opacity=".32" stroke-width="0"/></g></svg>